<svg width="512" height="512" viewBox="0 0 512 512" fill="none" xmlns="http://www.w3.org/2000/svg">
  <!-- Background gradient -->
  <defs>
    <linearGradient id="background" x1="0%" y1="0%" x2="100%" y2="100%">
      <stop offset="0%" style="stop-color:#a855f7"/>
      <stop offset="100%" style="stop-color:#3b82f6"/>
    </linearGradient>
    <linearGradient id="sparkle" x1="0%" y1="0%" x2="100%" y2="100%">
      <stop offset="0%" style="stop-color:#ffffff"/>
      <stop offset="100%" style="stop-color:#f1f5f9"/>
    </linearGradient>
  </defs>
  
  <!-- Background circle -->
  <circle cx="256" cy="256" r="240" fill="url(#background)"/>
  
  <!-- Main sparkle icon -->
  <g transform="translate(256, 256)">
    <!-- Center star -->
    <path d="M0 -60 L18 -18 L60 0 L18 18 L0 60 L-18 18 L-60 0 L-18 -18 Z" fill="url(#sparkle)"/>
    
    <!-- Top right small sparkle -->
    <path d="M45 -45 L52 -38 L60 -30 L52 -22 L45 -15 L38 -22 L30 -30 L38 -38 Z" fill="url(#sparkle)" opacity="0.8"/>
    
    <!-- Bottom left small sparkle -->
    <path d="M-45 45 L-38 52 L-30 60 L-22 52 L-15 45 L-22 38 L-30 30 L-38 38 Z" fill="url(#sparkle)" opacity="0.8"/>
    
    <!-- Top left tiny sparkle -->
    <circle cx="-50" cy="-60" r="8" fill="url(#sparkle)" opacity="0.6"/>
    
    <!-- Bottom right tiny sparkle -->
    <circle cx="60" cy="50" r="6" fill="url(#sparkle)" opacity="0.6"/>
    
    <!-- Additional small sparkles -->
    <circle cx="-70" cy="20" r="4" fill="url(#sparkle)" opacity="0.5"/>
    <circle cx="20" cy="-70" r="5" fill="url(#sparkle)" opacity="0.5"/>
  </g>
</svg>